<svg xmlns="http://www.w3.org/2000/svg" version="1.1" xmlns:xlink="http://www.w3.org/1999/xlink" xmlns:svgjs="http://svgjs.dev/svgjs" width="1000" height="1000" viewBox="0 0 1000 1000"><rect width="1000" height="1000" fill="#0080ff"></rect><g transform="matrix(0.7,0,0,0.7,149.57575757575756,282.1265587044535)"><svg viewBox="0 0 396 247" data-background-color="#0080ff" preserveAspectRatio="xMidYMid meet" height="623" width="1000" xmlns="http://www.w3.org/2000/svg" xmlns:xlink="http://www.w3.org/1999/xlink"><g id="tight-bounds" transform="matrix(1,0,0,1,0.2400000000000091,-0.09999999999999432)"><svg viewBox="0 0 395.52 247.2" height="247.2" width="395.52"><g><svg></svg></g><g><svg viewBox="0 0 395.52 247.2" height="247.2" width="395.52"><g transform="matrix(1,0,0,1,75.54432000000001,88.38701533908755)"><svg viewBox="0 0 244.43135999999996 70.4259693218249" height="70.4259693218249" width="244.43135999999996"><g><svg viewBox="0 0 244.43135999999996 70.4259693218249" height="70.4259693218249" width="244.43135999999996"><g><svg viewBox="0 0 244.43136 70.42596932182491" height="70.4259693218249" width="244.43135999999996"><g><svg viewBox="0 0 244.43136 70.42596932182491" height="70.42596932182491" width="244.43136"><g><svg viewBox="0 0 244.43136 70.42596932182491" height="70.42596932182491" width="244.43136" id="textblock"><g><svg viewBox="0 0 244.43136 70.42596932182491" height="70.42596932182491" width="244.43136"><g transform="matrix(1,0,0,1,0,0)"><svg width="244.43136" viewBox="5 -34.45000076293945 121.63999938964844 35.04999923706055" height="70.42596932182491" data-palette-color="#ffffff"><path d="M23.35 0L15.1-14.6 9.75-14.6 9.75 0 5 0 5-34.45 14.05-34.45Q20.5-34.45 23.83-32 27.15-29.55 27.15-24.7L27.15-24.7Q27.15-21.1 25.3-18.85 23.45-16.6 19.7-15.45L19.7-15.45 29 0 23.35 0ZM9.75-18.25L14.55-18.25Q18.3-18.25 20.2-19.78 22.1-21.3 22.1-24.7L22.1-24.7Q22.1-27.9 20.18-29.33 18.25-30.75 14-30.75L14-30.75 9.75-30.75 9.75-18.25ZM54.9-13.95Q54.9-12.8 54.8-11.6L54.8-11.6 38-11.6Q38.3-7.25 40.2-5.2 42.1-3.15 45.1-3.15L45.1-3.15Q47-3.15 48.6-3.7 50.2-4.25 51.95-5.45L51.95-5.45 53.95-2.7Q49.75 0.6 44.75 0.6L44.75 0.6Q39.25 0.6 36.17-3 33.1-6.6 33.1-12.9L33.1-12.9Q33.1-17 34.42-20.18 35.75-23.35 38.22-25.15 40.7-26.95 44.05-26.95L44.05-26.95Q49.3-26.95 52.1-23.5 54.9-20.05 54.9-13.95L54.9-13.95ZM50.35-15L50.35-15.3Q50.35-19.2 48.8-21.25 47.25-23.3 44.15-23.3L44.15-23.3Q38.5-23.3 38-15L38-15 50.35-15ZM80-6.15Q80-4.55 80.55-3.78 81.09-3 82.2-2.6L82.2-2.6 81.15 0.6Q79.09 0.35 77.84-0.55 76.59-1.45 76-3.35L76-3.35Q73.34 0.6 68.15 0.6L68.15 0.6Q64.25 0.6 62-1.6 59.75-3.8 59.75-7.35L59.75-7.35Q59.75-11.55 62.77-13.8 65.8-16.05 71.34-16.05L71.34-16.05 75.4-16.05 75.4-18Q75.4-20.8 74.05-22 72.7-23.2 69.9-23.2L69.9-23.2Q67-23.2 62.8-21.8L62.8-21.8 61.65-25.15Q66.55-26.95 70.75-26.95L70.75-26.95Q75.4-26.95 77.7-24.68 80-22.4 80-18.2L80-18.2 80-6.15ZM69.2-2.85Q73.15-2.85 75.4-6.95L75.4-6.95 75.4-13 71.95-13Q64.65-13 64.65-7.6L64.65-7.6Q64.65-5.25 65.8-4.05 66.95-2.85 69.2-2.85L69.2-2.85ZM99.04-26.95Q101.39-26.95 103.34-26.28 105.29-25.6 107.09-24.1L107.09-24.1 104.89-21.2Q103.49-22.2 102.17-22.68 100.84-23.15 99.24-23.15L99.24-23.15Q96.04-23.15 94.27-20.6 92.49-18.05 92.49-13.05L92.49-13.05Q92.49-8.05 94.24-5.68 95.99-3.3 99.24-3.3L99.24-3.3Q100.79-3.3 102.09-3.78 103.39-4.25 104.99-5.3L104.99-5.3 107.09-2.3Q103.49 0.6 99.04 0.6L99.04 0.6Q93.69 0.6 90.62-3 87.54-6.6 87.54-12.95L87.54-12.95Q87.54-17.15 88.94-20.3 90.34-23.45 92.92-25.2 95.49-26.95 99.04-26.95L99.04-26.95ZM124.89-4.25L126.64-1.2Q124.04 0.6 120.74 0.6L120.74 0.6Q117.39 0.6 115.52-1.33 113.64-3.25 113.64-6.9L113.64-6.9 113.64-22.8 109.04-22.8 109.04-26.35 113.64-26.35 113.64-32.3 118.24-32.85 118.24-26.35 124.49-26.35 123.99-22.8 118.24-22.8 118.24-7.1Q118.24-5.05 118.97-4.13 119.69-3.2 121.39-3.2L121.39-3.2Q122.94-3.2 124.89-4.25L124.89-4.25Z" opacity="1" transform="matrix(1,0,0,1,0,0)" fill="#ffffff" class="undefined-text-0" data-fill-palette-color="primary" id="text-0"></path></svg></g></svg></g></svg></g></svg></g></svg></g></svg></g></svg></g><g><path d="M245.816 0c68.262 0 123.6 55.338 123.6 123.6 0 68.262-55.338 123.6-123.6 123.6-52.943 0-98.111-33.287-115.719-80.074l3.401 0c17.449 44.996 61.158 76.899 112.318 76.898 66.509 0 120.424-53.916 120.424-120.424 0-66.509-53.916-120.424-120.424-120.424-51.16 0-94.869 31.902-112.318 76.898l-3.401 0c17.607-46.787 62.775-80.074 115.719-80.074z" fill="#ffffff" stroke="transparent" data-fill-palette-color="tertiary"></path></g></svg></g><defs></defs></svg><rect width="395.52" height="247.2" fill="none" stroke="none" visibility="hidden"></rect></g></svg></g></svg>